<?xml version="1.0" encoding="UTF-8" ?>
<!DOCTYPE svg PUBLIC "-//W3C//DTD SVG 1.1//EN" "http://www.w3.org/Graphics/SVG/1.1/DTD/svg11.dtd">
<svg width="920pt" height="920pt" viewBox="0 0 920 920" version="1.1" xmlns="http://www.w3.org/2000/svg">
<g id="#fafafaff">
<path fill="#fafafa" opacity="1.00" d=" M 79.72 133.40 C 117.16 160.77 149.95 194.37 177.20 231.86 C 193.48 254.97 208.08 279.42 218.88 305.60 C 192.33 329.11 166.17 353.07 140.81 377.87 C 137.49 381.25 133.73 384.19 130.69 387.84 C 108.08 339.24 93.51 287.05 86.09 234.01 C 81.27 200.72 79.13 167.04 79.72 133.40 Z" />
<path fill="#fafafa" opacity="1.00" d=" M 812.56 159.55 C 822.86 150.37 833.58 141.67 844.70 133.50 C 844.79 135.66 844.85 137.83 844.89 139.99 C 844.83 165.72 843.68 191.42 840.95 217.00 C 835.84 258.42 827.44 299.59 813.60 339.02 C 807.96 355.61 801.20 371.79 793.94 387.72 C 770.94 366.16 748.35 344.16 724.71 323.29 C 718.41 317.41 711.82 311.86 705.61 305.89 C 729.56 249.79 767.53 200.39 812.56 159.55 Z" />
<path fill="#fafafa" opacity="1.00" d=" M 175.14 523.01 C 175.53 517.27 174.99 511.35 176.67 505.78 C 197.90 514.02 218.94 522.72 240.03 531.29 C 232.23 547.75 228.91 566.65 232.73 584.61 C 235.31 594.46 238.96 604.36 245.81 612.09 C 252.10 619.47 261.08 625.11 270.94 625.62 C 280.14 626.15 289.30 622.19 295.77 615.72 C 309.36 603.39 315.16 584.60 315.88 566.70 C 324.53 571.02 332.00 577.44 338.58 584.47 C 351.43 598.61 358.76 617.44 359.50 636.48 C 340.29 642.78 320.06 645.93 299.84 645.78 L 299.19 646.28 C 297.75 646.22 296.32 646.17 294.90 646.12 C 276.86 645.31 258.61 643.41 241.54 637.17 C 225.14 631.42 209.68 621.96 198.73 608.28 C 186.45 593.13 180.10 574.02 177.27 554.93 C 175.35 544.40 175.27 533.68 175.14 523.01 Z" />
<path fill="#fafafa" opacity="1.00" d=" M 677.07 529.09 C 694.86 522.04 712.52 514.63 730.31 507.55 C 732.27 515.21 732.53 523.14 733.31 530.97 C 734.25 551.02 732.61 571.75 724.23 590.24 C 717.64 605.14 706.44 617.95 692.56 626.46 C 676.59 636.80 657.81 641.75 639.13 644.28 C 610.40 647.65 580.80 645.45 553.25 636.43 C 554.05 617.94 561.82 599.95 574.32 586.35 C 582.17 577.40 592.27 570.87 602.57 565.09 C 602.91 582.20 608.03 599.59 619.21 612.80 C 624.70 618.93 632.04 623.13 639.94 625.32 C 649.88 626.89 660.34 623.57 667.62 616.64 C 678.47 607.09 684.54 593.04 686.28 578.88 C 687.42 566.83 686.80 554.45 682.82 542.94 C 681.28 538.17 678.79 533.79 677.07 529.09 Z" />
<path fill="#fafafa" opacity="1.00" d=" M 90.04 621.51 C 111.46 621.22 132.61 625.77 153.34 630.75 C 186.93 638.95 219.48 650.87 251.54 663.69 C 266.24 669.74 280.79 676.13 295.24 682.77 C 311.20 690.48 327.32 698.50 340.67 710.36 C 362.28 728.48 374.69 754.68 384.56 780.51 C 388.09 787.52 389.25 795.56 393.64 802.16 C 398.38 809.41 405.30 814.98 412.58 819.54 C 425.44 827.50 439.32 834.36 454.28 837.24 C 463.27 838.88 472.35 836.59 480.77 833.55 C 491.10 829.42 501.18 824.51 510.39 818.25 C 520.90 811.73 529.89 801.92 533.11 789.75 C 539.77 771.09 546.92 752.39 557.47 735.52 C 567.00 720.12 579.97 706.80 595.40 697.27 C 609.46 688.44 624.62 681.47 639.85 674.92 C 676.67 659.61 714.49 646.57 753.16 636.81 C 765.97 633.60 778.87 630.64 791.94 628.70 C 805.90 626.60 820.03 624.67 834.18 625.66 C 836.08 626.27 838.02 626.86 839.90 627.57 C 837.29 633.75 833.41 639.27 829.64 644.78 C 811.65 669.76 788.65 690.63 764.53 709.54 C 738.79 729.44 711.11 746.67 683.05 763.07 C 662.29 775.33 640.75 786.28 620.57 799.52 C 610.22 806.28 600.90 814.81 594.27 825.31 C 586.97 836.98 578.78 848.35 568.02 857.09 C 555.10 867.98 539.35 875.15 523.05 879.28 C 490.92 887.23 457.31 888.08 424.55 884.20 C 408.11 881.77 391.56 878.46 376.43 871.35 C 360.89 864.47 347.31 853.38 337.22 839.73 C 330.20 830.69 325.21 820.11 317.03 811.98 C 307.46 801.54 295.31 793.98 283.21 786.84 C 247.98 767.16 212.42 747.86 179.25 724.78 C 150.42 704.59 122.48 682.37 100.15 654.96 C 92.59 645.56 85.32 635.75 80.34 624.70 C 82.37 621.43 86.67 621.65 90.04 621.51 Z" />
</g>
<g id="#252d37ff">
<path fill="#252d37" opacity="1.00" d=" M 28.82 54.89 C 31.69 46.91 38.23 39.83 46.74 38.05 C 53.13 36.48 59.43 39.22 65.16 41.77 C 92.55 54.21 118.88 68.84 144.61 84.39 C 190.42 112.26 233.69 144.52 272.26 181.83 C 283.19 191.53 292.82 202.54 302.98 213.00 C 315.76 226.75 327.82 241.15 339.61 255.76 C 365.44 249.62 391.59 244.61 418.06 242.28 C 440.27 239.75 462.67 240.06 484.99 240.55 C 518.80 242.09 552.30 247.90 585.20 255.72 C 631.42 198.57 685.39 147.41 746.42 106.29 C 775.24 86.42 805.49 68.63 836.62 52.64 C 846.42 47.98 856.01 42.76 866.22 39.02 C 872.80 36.53 880.52 37.59 886.11 41.89 C 893.89 47.29 896.83 56.97 898.48 65.84 C 905.32 107.15 907.45 149.14 906.53 190.97 C 905.99 222.84 902.87 254.61 898.13 286.11 C 888.52 348.55 869.06 409.42 841.16 466.07 C 840.69 467.14 839.95 468.33 840.57 469.52 C 846.43 483.22 853.32 496.45 860.36 509.57 C 873.67 533.05 891.10 553.93 910.56 572.55 C 913.31 574.66 913.61 578.87 911.66 581.62 C 902.33 596.36 891.89 610.47 879.93 623.19 C 886.20 630.90 892.92 638.25 898.73 646.33 C 900.45 648.59 899.93 651.94 898.09 653.99 C 889.03 665.85 878.71 676.72 867.58 686.65 C 834.65 717.66 795.77 741.31 756.79 763.80 C 714.50 788.20 670.91 810.30 626.52 830.59 C 614.79 835.85 602.85 840.70 591.12 845.90 C 583.09 854.91 574.72 863.90 564.42 870.37 C 553.16 878.07 540.37 883.25 527.30 886.96 C 513.32 890.26 499.16 893.08 484.78 893.75 L 484.18 894.25 C 451.03 895.82 417.08 894.47 385.41 883.72 C 365.75 877.13 347.89 865.26 334.43 849.48 C 332.87 847.83 331.58 845.82 329.58 844.68 C 310.98 836.60 292.35 828.55 274.13 819.62 C 260.56 813.65 247.52 806.56 234.19 800.09 C 218.48 792.15 202.99 783.78 187.60 775.24 C 172.68 766.47 157.35 758.44 142.70 749.21 C 109.49 729.04 77.27 706.75 49.32 679.62 C 40.80 671.18 32.45 662.51 25.34 652.84 C 23.86 650.72 24.09 647.63 25.81 645.72 C 31.92 638.11 38.15 630.59 44.62 623.29 C 32.86 610.52 22.00 596.86 12.99 582.00 C 10.98 579.22 11.02 575.07 13.62 572.69 C 21.83 564.54 30.00 556.33 37.44 547.47 C 57.27 524.45 71.55 497.33 83.59 469.60 C 84.30 468.35 83.53 467.02 83.07 465.85 C 47.25 393.70 26.43 314.41 19.92 234.22 C 18.83 221.82 18.67 209.36 17.70 196.96 C 17.39 183.63 17.57 170.30 17.57 156.98 C 17.43 149.65 18.63 142.39 18.53 135.06 C 19.32 118.31 21.09 101.62 22.89 84.95 C 24.56 74.89 25.34 64.55 28.82 54.89 M 79.72 133.40 C 79.13 167.04 81.27 200.72 86.09 234.01 C 93.51 287.05 108.08 339.24 130.69 387.84 C 133.73 384.19 137.49 381.25 140.81 377.87 C 166.17 353.07 192.33 329.11 218.88 305.60 C 208.08 279.42 193.48 254.97 177.20 231.86 C 149.95 194.37 117.16 160.77 79.72 133.40 M 812.56 159.55 C 767.53 200.39 729.56 249.79 705.61 305.89 C 711.82 311.86 718.41 317.41 724.71 323.29 C 748.35 344.16 770.94 366.16 793.94 387.72 C 801.20 371.79 807.96 355.61 813.60 339.02 C 827.44 299.59 835.84 258.42 840.95 217.00 C 843.68 191.42 844.83 165.72 844.89 139.99 C 844.85 137.83 844.79 135.66 844.70 133.50 C 833.58 141.67 822.86 150.37 812.56 159.55 M 175.14 523.01 C 175.27 533.68 175.35 544.40 177.27 554.93 C 180.10 574.02 186.45 593.13 198.73 608.28 C 209.68 621.96 225.14 631.42 241.54 637.17 C 258.61 643.41 276.86 645.31 294.90 646.12 C 296.32 646.17 297.75 646.22 299.19 646.28 L 299.84 645.78 C 320.06 645.93 340.29 642.78 359.50 636.48 C 358.76 617.44 351.43 598.61 338.58 584.47 C 332.00 577.44 324.53 571.02 315.88 566.70 C 315.16 584.60 309.36 603.39 295.77 615.72 C 289.30 622.19 280.14 626.15 270.94 625.62 C 261.08 625.11 252.10 619.47 245.81 612.09 C 238.96 604.36 235.31 594.46 232.73 584.61 C 228.91 566.65 232.23 547.75 240.03 531.29 C 218.94 522.72 197.90 514.02 176.67 505.78 C 174.99 511.35 175.53 517.27 175.14 523.01 M 677.07 529.09 C 678.79 533.79 681.28 538.17 682.82 542.94 C 686.80 554.45 687.42 566.83 686.28 578.88 C 684.54 593.04 678.47 607.09 667.62 616.64 C 660.34 623.57 649.88 626.89 639.94 625.32 C 632.04 623.13 624.70 618.93 619.21 612.80 C 608.03 599.59 602.91 582.20 602.57 565.09 C 592.27 570.87 582.17 577.40 574.32 586.35 C 561.82 599.95 554.05 617.94 553.25 636.43 C 580.80 645.45 610.40 647.65 639.13 644.28 C 657.81 641.75 676.59 636.80 692.56 626.46 C 706.44 617.95 717.64 605.14 724.23 590.24 C 732.61 571.75 734.25 551.02 733.31 530.97 C 732.53 523.14 732.27 515.21 730.31 507.55 C 712.52 514.63 694.86 522.04 677.07 529.09 M 90.04 621.51 C 86.67 621.65 82.37 621.43 80.34 624.70 C 85.32 635.75 92.59 645.56 100.15 654.96 C 122.48 682.37 150.42 704.59 179.25 724.78 C 212.42 747.86 247.98 767.16 283.21 786.84 C 295.31 793.98 307.46 801.54 317.03 811.98 C 325.21 820.11 330.20 830.69 337.22 839.73 C 347.31 853.38 360.89 864.47 376.43 871.35 C 391.56 878.46 408.11 881.77 424.55 884.20 C 457.31 888.08 490.92 887.23 523.05 879.28 C 539.35 875.15 555.10 867.98 568.02 857.09 C 578.78 848.35 586.97 836.98 594.27 825.31 C 600.90 814.81 610.22 806.28 620.57 799.52 C 640.75 786.28 662.29 775.33 683.05 763.07 C 711.11 746.67 738.79 729.44 764.53 709.54 C 788.65 690.63 811.65 669.76 829.64 644.78 C 833.41 639.27 837.29 633.75 839.90 627.57 C 838.02 626.86 836.08 626.27 834.18 625.66 C 820.03 624.67 805.90 626.60 791.94 628.70 C 778.87 630.64 765.97 633.60 753.16 636.81 C 714.49 646.57 676.67 659.61 639.85 674.92 C 624.62 681.47 609.46 688.44 595.40 697.27 C 579.97 706.80 567.00 720.12 557.47 735.52 C 546.92 752.39 539.77 771.09 533.11 789.75 C 529.89 801.92 520.90 811.73 510.39 818.25 C 501.18 824.51 491.10 829.42 480.77 833.55 C 472.35 836.59 463.27 838.88 454.28 837.24 C 439.32 834.36 425.44 827.50 412.58 819.54 C 405.30 814.98 398.38 809.41 393.64 802.16 C 389.25 795.56 388.09 787.52 384.56 780.51 C 374.69 754.68 362.28 728.48 340.67 710.36 C 327.32 698.50 311.20 690.48 295.24 682.77 C 280.79 676.13 266.24 669.74 251.54 663.69 C 219.48 650.87 186.93 638.95 153.34 630.75 C 132.61 625.77 111.46 621.22 90.04 621.51 Z" />
</g>
</svg>
