<?xml version="1.0" encoding="UTF-8" ?>
<!DOCTYPE svg PUBLIC "-//W3C//DTD SVG 1.1//EN" "http://www.w3.org/Graphics/SVG/1.1/DTD/svg11.dtd">
<svg width="861pt" height="559pt" viewBox="0 0 861 559" version="1.1" xmlns="http://www.w3.org/2000/svg">
<g id="#fefefeff">
<path fill="#fefefe" opacity="1.00" d=" M 227.50 41.20 C 231.34 59.78 231.17 78.98 228.93 97.76 C 227.89 105.17 227.01 112.68 224.37 119.73 C 213.47 114.49 204.32 106.40 195.01 98.82 C 201.47 77.55 213.12 58.05 227.50 41.20 Z" />
<path fill="#fefefe" opacity="1.00" d=" M 50.38 77.08 C 49.04 65.35 49.11 53.43 50.65 41.73 C 54.59 48.63 58.22 55.72 61.10 63.14 C 65.44 73.81 69.77 84.58 72.26 95.87 C 66.22 100.94 60.91 106.79 55.80 112.78 C 52.99 101.06 51.13 89.11 50.38 77.08 Z" />
<path fill="#fefefe" opacity="1.00" d=" M 61.69 168.55 C 59.41 160.78 59.66 152.33 61.81 144.56 C 65.33 146.08 68.88 147.54 72.31 149.27 C 68.89 156.45 68.01 165.61 72.42 172.56 C 74.64 176.26 79.82 177.89 83.62 175.68 C 88.52 172.93 90.54 167.11 91.08 161.82 C 92.31 162.56 93.53 163.31 94.75 164.07 C 93.97 168.63 93.71 173.45 91.69 177.67 C 85.66 180.45 78.54 181.33 72.05 179.68 C 66.87 178.21 63.13 173.60 61.69 168.55 Z" />
<path fill="#fefefe" opacity="1.00" d=" M 183.18 150.55 C 186.88 149.59 190.65 148.94 194.44 148.51 C 195.37 157.38 195.14 167.19 189.70 174.70 C 186.26 179.79 180.07 182.41 174.06 182.44 C 164.25 182.40 154.59 180.25 145.27 177.33 C 148.04 169.03 155.71 164.32 162.19 159.14 C 163.64 157.67 165.50 158.87 166.85 159.77 C 166.28 162.02 164.89 163.87 163.73 165.83 C 164.02 171.24 167.49 176.79 172.90 178.32 C 177.34 179.40 181.72 176.36 183.53 172.42 C 187.06 165.57 185.64 157.50 183.18 150.55 Z" />
<path fill="#fefefe" opacity="1.00" d=" M 35.77 179.47 C 38.82 178.58 42.02 178.69 45.10 179.35 C 59.88 182.51 75.26 185.25 88.10 193.75 C 85.83 196.52 82.73 198.30 79.87 200.36 C 78.40 203.60 80.07 207.26 81.91 210.02 C 85.35 215.09 89.53 219.85 94.82 223.03 C 97.89 224.89 101.21 222.52 103.82 220.93 C 108.26 217.71 112.88 214.53 116.25 210.13 C 119.43 205.58 124.44 202.89 129.05 200.05 C 140.28 193.59 153.47 192.86 165.98 190.96 C 187.77 187.93 209.29 183.29 231.01 179.88 C 237.98 179.09 245.21 177.78 252.10 179.75 C 252.41 180.31 253.05 181.45 253.36 182.01 C 251.62 189.07 246.06 194.14 240.90 198.85 C 228.80 209.85 213.94 217.03 199.61 224.60 C 190.34 229.65 185.31 239.26 179.76 247.76 C 166.46 269.13 149.58 288.06 137.05 309.92 C 130.53 321.78 124.49 334.20 122.27 347.67 C 120.68 355.38 120.91 363.34 121.88 371.11 C 119.28 369.07 116.78 366.89 114.57 364.43 C 107.79 356.50 100.66 348.77 95.46 339.66 C 94.95 356.49 100.44 372.59 104.62 388.64 C 95.88 375.32 86.38 362.22 80.68 347.21 C 75.01 333.89 73.54 319.20 74.24 304.86 C 69.93 313.40 65.10 321.84 62.68 331.16 C 61.63 322.14 60.34 313.11 60.58 304.00 C 61.12 287.56 64.69 271.24 70.97 256.04 C 73.84 248.82 77.46 241.95 80.45 234.78 C 75.57 229.85 72.13 223.35 71.07 216.48 C 70.87 217.35 70.48 219.08 70.29 219.95 C 61.30 212.55 51.57 205.92 43.74 197.21 C 39.84 192.73 35.71 188.00 34.65 181.95 C 34.93 181.33 35.49 180.09 35.77 179.47 M 128.23 230.19 C 119.72 233.85 110.27 233.65 101.24 232.70 C 107.03 238.02 115.37 240.27 123.05 238.62 C 136.98 236.24 149.38 227.07 156.54 214.99 C 156.47 214.56 156.31 213.71 156.23 213.28 C 147.04 219.13 138.68 226.55 128.23 230.19 M 77.21 228.08 C 77.92 233.43 83.57 235.14 88.00 236.34 C 90.36 236.03 91.44 233.67 92.20 231.70 C 86.94 231.61 82.17 229.47 77.21 228.08 Z" />
</g>
<g id="#29303aff">
<path fill="#29303a" opacity="1.00" d=" M 40.26 18.53 C 41.45 16.10 42.58 12.00 46.01 12.33 C 50.40 12.98 54.09 15.78 57.75 18.12 C 79.84 34.07 98.50 54.13 116.69 74.28 C 132.11 72.36 147.74 72.42 163.22 73.47 C 169.30 67.19 175.27 60.61 181.10 54.04 C 185.92 49.21 190.91 44.55 195.64 39.63 C 201.33 34.29 207.47 29.45 213.49 24.48 C 218.12 20.92 222.96 17.48 228.43 15.31 C 230.17 14.57 232.11 14.16 233.99 14.64 C 235.85 15.51 236.82 17.44 237.84 19.11 C 239.94 22.90 241.90 26.78 243.31 30.88 C 254.83 66.39 255.98 104.57 250.59 141.30 C 255.24 147.89 260.45 154.15 266.43 159.59 C 270.86 163.71 276.19 166.62 281.27 169.85 C 278.37 174.54 274.53 178.60 270.07 181.85 C 273.04 184.14 276.02 186.43 278.99 188.74 C 266.25 201.23 250.69 210.36 234.64 217.92 C 240.98 229.29 243.35 242.25 245.61 254.92 C 246.45 261.13 249.89 266.60 253.61 271.50 C 267.46 288.57 284.90 302.16 300.08 317.97 C 308.24 325.81 315.74 334.31 322.90 343.08 C 331.24 353.93 339.64 364.83 346.02 377.00 C 356.82 396.01 364.44 417.09 366.53 438.94 C 366.89 446.20 367.94 454.70 362.69 460.59 C 357.58 466.77 349.57 469.05 342.05 470.70 C 330.39 473.42 318.37 474.12 306.69 476.73 C 312.38 479.36 318.83 479.58 324.99 480.16 C 352.55 481.61 379.32 471.52 402.59 457.46 C 427.93 442.08 450.62 422.84 472.91 403.42 C 479.15 409.40 488.56 412.28 496.95 409.69 C 507.58 406.55 515.22 395.63 514.19 384.52 C 532.13 378.35 550.53 373.36 569.29 370.55 C 569.33 366.76 569.36 362.96 569.13 359.18 C 549.12 361.83 529.59 367.32 510.56 373.95 C 508.68 371.01 506.13 368.64 503.36 366.56 C 501.62 365.39 502.25 362.88 503.56 361.63 C 505.43 360.33 506.14 357.74 508.46 357.01 C 509.89 353.81 512.57 351.47 514.73 348.79 C 529.02 331.84 545.91 316.84 565.48 306.26 C 586.90 294.38 611.07 287.81 635.44 286.08 C 635.32 294.26 638.55 302.70 645.54 307.36 C 656.25 315.54 673.54 311.77 680.12 300.10 C 682.36 296.25 683.23 291.77 683.32 287.36 C 698.36 289.33 713.22 292.50 727.68 297.12 C 726.65 302.14 726.17 307.34 727.70 312.33 C 709.95 322.42 695.29 337.12 683.05 353.31 C 676.82 351.52 669.89 351.99 664.15 355.12 C 659.93 357.44 656.54 361.02 653.99 365.07 C 635.52 360.34 616.55 357.09 597.44 357.19 C 597.48 360.94 597.53 364.70 597.59 368.46 C 615.80 368.83 634.13 370.95 651.47 376.75 C 652.00 387.50 660.21 397.58 670.94 399.48 C 678.33 401.21 686.04 398.51 691.96 394.09 C 700.59 398.95 708.92 404.30 717.38 409.43 C 717.43 414.13 718.23 418.89 720.54 423.04 C 713.36 427.90 706.97 433.81 699.98 438.94 C 691.83 446.36 682.67 452.59 674.65 460.15 C 671.14 450.64 661.15 443.92 650.97 444.88 C 645.65 445.22 640.92 447.99 636.77 451.14 C 624.76 444.11 612.26 437.89 599.36 432.69 C 598.88 426.92 597.29 421.01 593.24 416.70 C 586.43 408.75 574.17 405.73 564.80 410.84 C 558.29 413.93 553.98 420.25 552.01 427.04 C 530.24 429.29 509.65 437.50 490.22 447.23 C 490.08 451.63 490.12 456.03 490.21 460.43 C 509.58 450.29 530.19 441.02 552.26 439.33 C 555.01 446.79 561.10 453.14 568.98 455.04 C 579.14 458.25 590.30 453.07 596.32 444.71 C 608.28 449.28 619.67 455.20 630.82 461.47 C 628.19 470.21 631.85 479.87 638.68 485.64 C 624.34 495.18 609.08 503.26 593.44 510.43 C 552.76 528.26 508.33 536.26 464.10 537.60 C 423.67 538.69 382.91 534.49 343.99 523.26 C 337.89 528.38 330.04 530.46 322.43 532.10 C 298.50 536.22 274.16 536.44 249.96 537.18 C 227.30 537.50 204.63 537.33 181.97 537.23 C 178.95 536.99 175.36 537.18 173.07 534.85 C 170.78 531.53 172.48 527.43 173.39 523.93 C 177.56 511.39 186.48 499.51 199.40 495.18 C 213.92 490.35 229.98 492.58 244.08 497.81 C 228.70 486.44 213.27 472.53 207.75 453.55 C 200.63 425.27 214.51 393.42 239.42 378.54 C 252.97 370.23 269.30 367.87 284.96 368.46 C 291.47 368.70 297.87 370.03 304.36 370.54 C 290.38 366.15 275.69 363.08 260.97 364.04 C 242.14 365.00 223.84 374.21 212.05 388.97 C 204.31 398.67 198.55 409.93 194.83 421.76 C 188.39 440.13 182.60 458.73 175.87 477.00 C 171.45 490.91 166.05 504.50 161.61 518.41 C 160.19 523.13 160.04 528.64 156.07 532.14 C 149.79 538.13 140.61 538.87 132.40 539.58 C 122.73 540.01 112.97 539.95 103.40 538.29 C 100.61 537.92 100.27 534.29 100.68 532.07 C 102.79 523.84 108.43 516.95 114.97 511.74 C 119.16 508.18 124.07 505.64 128.41 502.32 C 129.32 488.91 128.49 475.42 128.51 461.98 C 128.67 458.15 127.81 454.19 128.77 450.47 C 129.60 448.36 130.16 446.16 130.43 443.92 C 133.37 422.03 136.67 400.12 142.62 378.83 C 147.29 361.20 152.20 343.59 159.15 326.71 C 147.22 339.25 136.49 353.14 128.82 368.72 C 127.21 372.10 125.68 375.53 123.76 378.76 C 122.96 376.25 122.27 373.71 121.88 371.11 C 120.91 363.34 120.68 355.38 122.27 347.67 C 124.49 334.20 130.53 321.78 137.05 309.92 C 149.58 288.06 166.46 269.13 179.76 247.76 C 185.31 239.26 190.34 229.65 199.61 224.60 C 213.94 217.03 228.80 209.85 240.90 198.85 C 246.06 194.14 251.62 189.07 253.36 182.01 C 253.05 181.45 252.41 180.31 252.10 179.75 C 245.21 177.78 237.98 179.09 231.01 179.88 C 209.29 183.29 187.77 187.93 165.98 190.96 C 153.47 192.86 140.28 193.59 129.05 200.05 C 124.44 202.89 119.43 205.58 116.25 210.13 C 112.88 214.53 108.26 217.71 103.82 220.93 C 101.21 222.52 97.89 224.89 94.82 223.03 C 89.53 219.85 85.35 215.09 81.91 210.02 C 80.07 207.26 78.40 203.60 79.87 200.36 C 82.73 198.30 85.83 196.52 88.10 193.75 C 75.26 185.25 59.88 182.51 45.10 179.35 C 42.02 178.69 38.82 178.58 35.77 179.47 C 35.49 180.09 34.93 181.33 34.65 181.95 C 35.71 188.00 39.84 192.73 43.74 197.21 C 51.57 205.92 61.30 212.55 70.29 219.95 C 70.48 219.08 70.87 217.35 71.07 216.48 C 72.13 223.35 75.57 229.85 80.45 234.78 C 77.46 241.95 73.84 248.82 70.97 256.04 C 64.69 271.24 61.12 287.56 60.58 304.00 C 60.34 313.11 61.63 322.14 62.68 331.16 C 65.10 321.84 69.93 313.40 74.24 304.86 C 73.54 319.20 75.01 333.89 80.68 347.21 C 86.38 362.22 95.88 375.32 104.62 388.64 C 107.60 394.99 112.06 400.48 115.23 406.72 C 119.57 416.00 124.54 425.10 126.88 435.17 C 128.08 440.30 128.92 445.68 127.77 450.90 C 124.58 467.79 122.21 484.84 118.61 501.64 C 108.80 508.59 99.52 516.66 93.18 527.01 C 86.56 528.47 79.72 528.20 72.98 528.55 C 66.11 528.60 59.09 528.60 52.46 526.56 C 49.28 517.28 54.34 507.32 61.39 501.33 C 68.46 495.86 77.13 493.12 85.57 490.53 C 87.51 483.17 86.98 475.47 86.39 467.97 C 83.48 429.66 75.98 391.92 69.34 354.13 C 65.68 359.61 62.03 365.21 59.86 371.47 C 55.38 357.29 51.21 342.88 50.01 327.99 C 48.74 311.68 49.22 295.15 52.45 279.08 C 55.55 265.12 60.15 251.46 66.49 238.63 C 67.21 236.90 68.50 235.04 67.69 233.10 C 66.46 229.43 64.77 225.78 62.06 222.95 C 59.52 220.22 55.88 219.02 52.77 217.11 C 39.74 209.29 26.78 200.77 16.97 188.98 C 19.75 186.75 23.18 185.04 25.14 181.97 C 21.25 178.44 17.45 174.70 15.27 169.82 C 27.17 163.93 35.74 153.09 41.42 141.34 C 42.15 140.01 41.74 138.50 41.55 137.10 C 36.64 110.70 33.86 83.83 34.66 56.96 C 35.30 44.03 36.19 30.91 40.26 18.53 M 227.50 41.20 C 213.12 58.05 201.47 77.55 195.01 98.82 C 204.32 106.40 213.47 114.49 224.37 119.73 C 227.01 112.68 227.89 105.17 228.93 97.76 C 231.17 78.98 231.34 59.78 227.50 41.20 M 50.38 77.08 C 51.13 89.11 52.99 101.06 55.80 112.78 C 60.91 106.79 66.22 100.94 72.26 95.87 C 69.77 84.58 65.44 73.81 61.10 63.14 C 58.22 55.72 54.59 48.63 50.65 41.73 C 49.11 53.43 49.04 65.35 50.38 77.08 M 61.69 168.55 C 63.13 173.60 66.87 178.21 72.05 179.68 C 78.54 181.33 85.66 180.45 91.69 177.67 C 93.71 173.45 93.97 168.63 94.75 164.07 C 93.53 163.31 92.31 162.56 91.08 161.82 C 90.54 167.11 88.52 172.93 83.62 175.68 C 79.82 177.89 74.64 176.26 72.42 172.56 C 68.01 165.61 68.89 156.45 72.31 149.27 C 68.88 147.54 65.33 146.08 61.81 144.56 C 59.66 152.33 59.41 160.78 61.69 168.55 M 183.18 150.55 C 185.64 157.50 187.06 165.57 183.53 172.42 C 181.72 176.36 177.34 179.40 172.90 178.32 C 167.49 176.79 164.02 171.24 163.73 165.83 C 164.89 163.87 166.28 162.02 166.85 159.77 C 165.50 158.87 163.64 157.67 162.19 159.14 C 155.71 164.32 148.04 169.03 145.27 177.33 C 154.59 180.25 164.25 182.40 174.06 182.44 C 180.07 182.41 186.26 179.79 189.70 174.70 C 195.14 167.19 195.37 157.38 194.44 148.51 C 190.65 148.94 186.88 149.59 183.18 150.55 M 578.26 339.20 C 577.34 352.54 577.96 365.96 577.84 379.33 C 580.57 379.83 583.35 379.86 586.11 379.67 C 587.10 379.53 589.20 379.76 588.79 378.05 C 588.76 365.22 589.27 352.33 588.47 339.53 C 585.13 338.72 581.65 339.25 578.26 339.20 M 471.17 445.36 C 470.97 445.58 470.56 446.02 470.35 446.24 C 469.94 454.13 470.24 462.05 470.20 469.96 C 470.33 475.43 469.92 480.93 470.59 486.38 C 474.12 486.33 477.89 487.20 481.28 486.05 C 481.63 472.69 481.65 459.25 481.12 445.88 C 478.12 444.53 474.41 445.29 471.17 445.36 M 432.27 481.53 C 425.47 475.73 415.33 473.49 407.07 477.42 C 398.88 480.75 393.60 488.98 392.32 497.53 C 367.10 502.64 340.86 500.84 315.94 494.91 C 312.17 494.11 308.57 492.64 304.74 492.10 C 332.00 506.08 363.53 513.27 394.04 508.08 C 397.93 516.54 406.66 522.59 416.01 522.89 C 424.84 522.95 433.70 517.89 437.59 509.87 C 440.60 504.09 440.87 497.19 438.92 491.03 C 446.35 486.57 454.18 482.79 461.54 478.18 C 461.58 473.56 461.57 468.95 461.66 464.33 C 452.24 470.68 442.45 476.51 432.27 481.53 Z" />
<path fill="#29303a" opacity="1.00" d=" M 128.23 230.19 C 138.68 226.55 147.04 219.13 156.23 213.28 C 156.31 213.71 156.47 214.56 156.54 214.99 C 149.38 227.07 136.98 236.24 123.05 238.62 C 115.37 240.27 107.03 238.02 101.24 232.70 C 110.27 233.65 119.72 233.85 128.23 230.19 Z" />
<path fill="#29303a" opacity="1.00" d=" M 77.21 228.08 C 82.17 229.47 86.94 231.61 92.20 231.70 C 91.44 233.67 90.36 236.03 88.00 236.34 C 83.57 235.14 77.92 233.43 77.21 228.08 Z" />
<path fill="#29303a" opacity="1.00" d=" M 750.93 328.38 C 759.88 327.98 768.58 322.73 772.77 314.75 C 801.88 328.51 828.39 347.29 852.49 368.54 C 830.54 370.20 808.58 374.44 788.30 383.20 C 778.81 387.02 769.57 391.49 760.75 396.68 C 757.20 392.99 752.98 389.75 747.94 388.46 C 738.36 385.81 727.12 389.64 721.73 398.13 C 713.95 393.54 706.21 388.87 698.66 383.92 C 699.23 379.11 700.20 373.83 698.34 369.02 C 697.51 365.35 694.58 362.52 693.46 359.13 C 704.19 344.22 718.02 331.42 734.03 322.38 C 739.13 325.49 744.74 328.43 750.93 328.38 Z" />
</g>
<g id="#38796cff">
<path fill="#38796c" opacity="1.00" d=" M 653.36 272.72 C 662.38 268.98 673.96 274.76 675.64 284.56 C 678.08 292.92 672.27 302.12 663.94 304.10 C 655.79 306.50 646.09 301.86 643.58 293.59 C 640.69 285.46 645.23 275.66 653.36 272.72 Z" />
<path fill="#38796c" opacity="1.00" d=" M 747.75 288.24 C 756.04 286.51 765.47 292.47 766.77 301.02 C 768.11 306.64 766.16 313.02 761.67 316.74 C 755.34 322.14 744.83 322.07 738.89 316.12 C 732.27 310.06 732.55 298.15 739.41 292.39 C 741.69 290.20 744.67 288.86 747.75 288.24 Z" />
<path fill="#38796c" opacity="1.00" d=" M 128.82 368.72 C 136.49 353.14 147.22 339.25 159.15 326.71 C 152.20 343.59 147.29 361.20 142.62 378.83 C 136.67 400.12 133.37 422.03 130.43 443.92 C 130.16 446.16 129.60 448.36 128.77 450.47 C 128.52 450.58 128.02 450.80 127.77 450.90 C 128.92 445.68 128.08 440.30 126.88 435.17 C 124.54 425.10 119.57 416.00 115.23 406.72 C 112.06 400.48 107.60 394.99 104.62 388.64 C 100.44 372.59 94.95 356.49 95.46 339.66 C 100.66 348.77 107.79 356.50 114.57 364.43 C 116.78 366.89 119.28 369.07 121.88 371.11 C 122.27 373.71 122.96 376.25 123.76 378.76 C 125.68 375.53 127.21 372.10 128.82 368.72 Z" />
<path fill="#38796c" opacity="1.00" d=" M 669.42 360.68 C 678.64 356.61 690.78 362.81 692.05 372.98 C 694.36 382.97 685.34 393.73 675.01 392.69 C 666.64 392.76 658.95 385.45 659.08 377.00 C 658.42 369.98 663.03 363.30 669.42 360.68 Z" />
<path fill="#38796c" opacity="1.00" d=" M 485.51 370.76 C 491.02 369.32 497.41 370.36 501.59 374.44 C 507.50 379.54 508.76 388.93 504.69 395.54 C 500.89 401.63 492.84 405.04 485.90 402.81 C 481.47 401.57 477.53 398.55 475.46 394.42 C 470.38 385.81 475.71 373.03 485.51 370.76 Z" />
<path fill="#38796c" opacity="1.00" d=" M 737.02 395.55 C 742.43 394.64 748.60 395.11 752.61 399.31 C 757.84 403.47 759.33 410.91 757.35 417.09 C 754.88 423.16 748.68 427.84 742.01 427.72 C 736.15 428.02 730.25 424.95 727.28 419.86 C 724.65 415.73 725.12 410.57 725.71 405.94 C 727.75 401.12 731.74 396.71 737.02 395.55 Z" />
<path fill="#38796c" opacity="1.00" d=" M 566.34 418.38 C 568.90 416.61 572.02 416.32 574.99 415.72 C 578.21 416.39 581.78 416.37 584.51 418.49 C 589.15 421.72 592.24 427.28 591.67 433.02 C 591.99 443.87 579.03 451.74 569.32 447.44 C 562.92 445.20 558.87 438.60 558.66 431.99 C 559.04 426.66 561.42 421.00 566.34 418.38 Z" />
<path fill="#38796c" opacity="1.00" d=" M 636.77 451.14 C 640.92 447.99 645.65 445.22 650.97 444.88 C 661.15 443.92 671.14 450.64 674.65 460.15 C 677.34 469.40 674.18 480.54 666.00 486.04 C 658.11 491.88 646.38 491.69 638.68 485.64 C 631.85 479.87 628.19 470.21 630.82 461.47 C 632.07 457.66 633.96 454.03 636.77 451.14 Z" />
<path fill="#38796c" opacity="1.00" d=" M 410.46 483.65 C 415.88 481.65 422.22 482.67 426.84 486.09 C 432.76 490.80 434.94 499.60 431.51 506.42 C 427.84 514.99 416.23 518.45 408.31 513.76 C 400.78 509.94 397.49 499.78 401.22 492.24 C 402.96 488.26 406.39 485.12 410.46 483.65 Z" />
</g>
</svg>
